<svg xmlns="http://www.w3.org/2000/svg" viewBox="200 280 650 700">
  <path
    fill="#FAFAF8"
    d="m 652.47405,830.76393 c -47.10964,-35.15275 -95.70908,-68.3243 -141.63808,-105.0458 -9.00542,-27.04659 -24.49023,-51.55943 -28.57446,-80.21988 -2.47263,-14.75224 -20.3915,-53.20468 -12.5539,-52.23216 23.66223,28.38771 65.26467,46.75651 69.90873,86.25232 0.0568,34.01581 36.85784,41.68136 58.06297,60.76835 19.50723,25.17685 35.33484,53.89541 53.13634,80.62383 2.89105,6.11442 15.97138,21.32556 1.6584,9.85334 z m -25.76008,-62.16149 c -16.40936,-29.51103 -45.15111,-48.29449 -73.92217,-63.26896 -8.52186,-28.24005 -15.08238,-56.6519 -39.84249,-76.58636 -19.4149,-26.48857 -48.44428,-47.4511 -59.35335,-79.14383 -10.78547,-28.24933 -21.46999,-56.53722 -32.0429,-84.8668 21.60277,-22.35972 57.58502,-33.32378 69.87244,-62.65462 9.56668,-23.67318 31.58163,-46.6532 56.0675,-51.06865 16.31135,1.23162 51.7452,43.19151 34.12872,6.68758 -12.46051,-22.46495 -15.97824,-52.68911 -43.37182,-62.43209 -28.64618,-15.27551 -49.32042,-39.97996 -68.46161,-65.41675 -8.24665,-17.26561 34.33089,17.56697 46.63038,21.79573 22.44269,13.30461 44.85393,26.66246 67.34624,39.88318 -22.35044,-21.29308 -54.1062,-34.01707 -67.47318,-63.28842 -6.73231,-12.41418 -35.82661,-54.7214 -8.67018,-28.64386 58.772,47.95903 119.17391,94.22138 175.67015,144.77624 18.17111,24.19051 27.33316,55.0268 23.73238,85.23042 2.99387,14.3934 -29.65114,-25.65633 -25.96613,5.39475 7.11267,28.07474 -47.91223,27.64301 -30.37056,56.64595 -38.6022,-11.07841 -85.34558,-19.20486 -107.27639,-56.7914 -5.19089,-10.48386 -25.40183,-51.5906 -13.56196,-16.82659 1.78971,23.77911 33.11436,46.42347 36.14562,57.62158 -34.23235,23.59987 -30.35657,72.48504 -11.65633,104.79479 20.24568,37.80304 48.3703,71.19246 66.32829,110.16383 10.1054,37.46704 21.96717,74.49547 32.0673,111.99125 -9.01691,-11.06581 -17.39312,-22.62987 -26.01995,-33.99697 z M 673.07725,404.25 c -5.11148,-14.15768 -29.92798,-36.0812 -35.28388,-33.46881 7.73484,17.47187 16.64376,38.03243 35.28388,33.46881 z M 511.42437,777.84063 C 485.16534,746.43695 457.79027,715.9333 433,683.32793 c 6.29147,-14.24263 -0.95626,-26.90801 -7.28052,-7.06082 -18.70759,23.93597 -51.50718,61.16296 -65.81547,73.14203 15.67095,-34.26313 33.00983,-67.73315 48.70053,-101.98699 0.8719,-39.38675 -8.97346,-78.73149 -5.24468,-117.92771 4.39351,-13.35188 5.29404,-55.12086 12.95729,-48.57636 11.12407,35.83705 43.95855,69.16624 36.7191,107.56293 -2.2421,16.39233 -9.4242,50.24406 -7.44194,55.95942 3.65146,-11.56033 13.05986,-59.36712 20.40474,-24.51396 19.29299,57.21002 38.80712,114.34628 57.72611,171.6817 -4.42573,-4.28988 -8.28875,-9.10236 -12.30079,-13.76754 z M 261.5,713.27751 c 40.09264,-22.47211 79.53005,-47.82245 125.01347,-57.89378 28.72475,-11.51526 -1.45405,34.93045 -15.3923,37.51223 -31.90786,10.13801 -65.9711,11.64837 -98.66294,18.93144 -3.64276,0.55478 -7.29486,1.05162 -10.95823,1.45011 z m 51.50707,-39.43204 c 22.18124,-23.21173 54.33182,-39.63156 62.65399,-73.22145 4.76917,-10.70284 14.85313,-44.34042 18.72945,-37.3822 2.1091,30.4854 27.01355,83.57161 -20.32012,90.31161 -18.70969,7.16289 -50.52538,19.68085 -61.06332,20.29204 z M 754.93047,556.75 C 720.785,538.27794 687.89374,517.20708 656.9399,493.90786 c -15.51411,-28.70062 32.59244,-28.98462 29.02748,-57.69545 18.097,-18.57316 33.12157,30.69569 39.02412,44.71632 7.42123,26.6379 53.33118,49.39248 32.69486,78.70098 l -1.43478,-0.54315 z M 736,536.65641 c -18.34898,-15.50303 -58.25603,-50.56149 -66.2384,-49.05094 21.67064,16.89158 43.6322,33.4264 66.2384,49.05094 z m -20.99567,-54.76878 c -5.90465,-18.45062 -20.14582,-17.7606 -4.45133,-0.65291 -0.35453,1.76779 11.97474,13.71172 4.45133,0.65291 z M 390.78036,470.75 c 21.68211,-27.30624 30.28402,-71.75809 60.43731,-87.93927 11.03783,-3.23119 47.692,-11.44418 40.90163,-11.96923 -23.50777,1.35805 -68.23609,10.92685 -78.38153,7.77132 24.4141,-11.83792 45.47536,-36.32534 74.47482,-33.5407 15.4867,0.78578 47.05149,-3.9906 52.50391,0.0328 -19.12496,12.50737 -43.28598,22.25071 -48.68056,47.08509 -11.76914,31.20705 -44.45399,41.93052 -68.99819,60.31075 -10.37204,6.6187 -20.33186,14.6106 -32.25739,18.24922 z M 567.38823,356.89659 c -22.03567,-25.21496 -58.58712,-13.25251 -87.64482,-19.02016 -15.93982,-0.0416 -65.18352,-0.93091 -26.73899,-9.90517 27.08299,-8.79725 54.3081,-17.14784 81.42857,-25.82759 26.27963,10.79082 33.29496,40.59382 46.09119,63.24732 -3.65359,2.51269 -9.68958,-6.18528 -13.13595,-8.4944 z"/>
</svg>
